#N canvas 620 186 720 528 10;
#X obj 4 321 vline~;
#X obj 4 196 bng 15 250 50 0 empty empty empty 17 7 0 10 -262144 -1
-1;
#X obj -14 372 *~;
#X obj -66 321 inlet~;
#X obj -14 444 outlet~;
#X obj 4 165 inlet;
#X floatatom 114 118 5 0 2000 0 A - -, f 5;
#X floatatom 114 132 5 0 2000 0 D - -, f 5;
#X floatatom 114 146 5 0 2000 0 S - -, f 5;
#X floatatom 114 160 5 0 2000 0 R - -, f 5;
#X obj 66 404 env~;
#X obj 66 444 outlet;
#X floatatom 66 426 5 0 0 0 - - -, f 5;
#X obj 4 233 pack 0 0 0 0 0;
#X msg 4 278 1 \$2 \, 0.7 \$3 0 \, 0 \$5 \$4;
#X connect 0 0 2 1;
#X connect 1 0 13 0;
#X connect 2 0 4 0;
#X connect 2 0 10 0;
#X connect 3 0 2 0;
#X connect 5 0 1 0;
#X connect 6 0 13 1;
#X connect 7 0 13 2;
#X connect 8 0 13 3;
#X connect 9 0 13 4;
#X connect 10 0 12 0;
#X connect 12 0 11 0;
#X connect 13 0 14 0;
#X connect 14 0 0 0;
#X coords 0 -1 1 1 60 80 1 100 100;
