#N canvas 636 166 720 532 10;
#X obj 4 321 vline~;
#X obj 4 196 bng 15 250 50 0 empty empty empty 17 7 0 10 -262144 -1
-1;
#X obj 4 165 inlet;
#X floatatom 114 138 5 0 5000 0 A - -, f 5;
#X floatatom 114 152 5 0 5000 0 D - -, f 5;
#X floatatom 114 166 5 0 1 0 S - -, f 5;
#X floatatom 114 180 5 0 5000 0 H - -, f 5;
#X obj 114 123 tgl 15 0 empty empty Hold 17 7 0 10 -262144 -1 -1 0
1;
#X obj 211 305 select 0;
#X obj 211 374 tgl 15 0 empty empty empty 17 7 0 10 -262144 -1 -1 1
1;
#X msg 211 337 1;
#X msg 264 337 0;
#X obj 114 63 loadbang;
#X floatatom 114 194 5 0 5000 0 R - -, f 5;
#X obj 4 233 pack 0 0 0 0 0 0;
#X msg 4 278 1 \$2 \, \$4 \$3 \$2 \, 0 \$6 \$5;
#X obj 207 193 expr $f1 + $f2 +$f3;
#X obj 44 369 snapshot~;
#X obj 44 485 outlet;
#X obj 63 337 bang~;
#X obj 44 409 *;
#X floatatom 44 446 5 0 0 0 - - -, f 5;
#X floatatom 207 215 5 0 0 0 - - -, f 5;
#X obj 217 60 inlet;
#X obj 217 82 / 0.0254;
#X obj 287 60 inlet;
#X obj 287 82 / 0.0254;
#X obj 357 60 inlet;
#X obj 357 82 / 127;
#X obj 407 60 inlet;
#X obj 407 82 / 0.0254;
#X obj 477 60 inlet;
#X obj 477 82 / 0.0254;
#X connect 0 0 17 0;
#X connect 1 0 14 0;
#X connect 1 0 16 0;
#X connect 2 0 1 0;
#X connect 3 0 14 1;
#X connect 3 0 16 0;
#X connect 4 0 14 2;
#X connect 4 0 16 1;
#X connect 5 0 14 3;
#X connect 6 0 16 2;
#X connect 7 0 8 0;
#X connect 7 0 21 0;
#X connect 8 0 10 0;
#X connect 8 1 11 0;
#X connect 9 0 20 1;
#X connect 10 0 9 0;
#X connect 11 0 9 0;
#X connect 12 0 7 0;
#X connect 13 0 14 5;
#X connect 14 0 15 0;
#X connect 15 0 0 0;
#X connect 16 0 14 4;
#X connect 16 0 22 0;
#X connect 17 0 20 0;
#X connect 19 0 17 0;
#X connect 20 0 21 0;
#X connect 21 0 18 0;
#X connect 23 0 24 0;
#X connect 24 0 3 0;
#X connect 25 0 26 0;
#X connect 26 0 4 0;
#X connect 27 0 28 0;
#X connect 28 0 5 0;
#X connect 29 0 30 0;
#X connect 30 0 6 0;
#X connect 31 0 32 0;
#X connect 32 0 13 0;
#X coords 0 -1 1 1 60 120 1 100 100;
