#N canvas 622 188 720 528 10;
#X obj 114 311 vline~;
#X obj 114 223 pack 0 0 0 0;
#X obj 254 166 bng 15 250 50 0 empty empty empty 17 7 0 10 -262144
-1 -1;
#X msg 114 268 1 \$1 \, 0.7 \$2 0 \, 0 \$4 \$3;
#X obj 96 362 *~;
#X obj 44 311 inlet~;
#X obj 96 434 outlet~;
#X obj 254 145 inlet;
#X floatatom 114 118 5 0 2000 0 A - -, f 5;
#X floatatom 114 132 5 0 2000 0 D - -, f 5;
#X floatatom 114 146 5 0 2000 0 S - -, f 5;
#X floatatom 114 160 5 0 2000 0 R - -, f 5;
#X obj 176 394 env~;
#X obj 176 434 outlet;
#X connect 0 0 4 1;
#X connect 1 0 3 0;
#X connect 2 0 1 0;
#X connect 3 0 0 0;
#X connect 4 0 6 0;
#X connect 4 0 12 0;
#X connect 5 0 4 0;
#X connect 7 0 2 0;
#X connect 8 0 1 0;
#X connect 9 0 1 1;
#X connect 10 0 1 2;
#X connect 11 0 1 3;
#X connect 12 0 13 0;
#X coords 0 -1 1 1 60 80 1 100 100;
