#N canvas 92 173 720 528 10;
#X obj 121 403 vline~;
#X obj 105 144 vsl 15 128 0 200 0 0 empty empty A 0 -9 0 10 -262144
-1 -1 1100 1;
#X obj 121 315 pack 0 0 0 0;
#X obj 120 144 vsl 15 128 0 500 0 0 empty empty D 0 -9 0 10 -262144
-1 -1 1800 1;
#X obj 135 144 vsl 15 128 0 1000 0 0 empty empty S 0 -9 0 10 -262144
-1 -1 10700 1;
#X obj 150 144 vsl 15 128 0 1000 0 0 empty empty R 0 -9 0 10 -262144
-1 -1 11800 1;
#X obj 261 258 bng 15 250 50 0 empty empty empty 17 7 0 10 -262144
-1 -1;
#X msg 121 360 1 \$1 \, 0.7 \$2 0 \, 0 \$4 \$3;
#X obj 103 454 *~;
#X obj 51 403 inlet~;
#X obj 103 476 outlet~;
#X obj 261 237 inlet;
#X connect 0 0 8 1;
#X connect 1 0 2 0;
#X connect 2 0 7 0;
#X connect 3 0 2 1;
#X connect 4 0 2 2;
#X connect 5 0 2 3;
#X connect 6 0 2 0;
#X connect 7 0 0 0;
#X connect 8 0 10 0;
#X connect 9 0 8 0;
#X connect 11 0 6 0;
#X coords 0 -1 1 1 70 180 1 100 100;
