#N canvas 641 171 720 528 10;
#X obj 4 321 vline~;
#X obj 4 196 bng 15 250 50 0 empty empty empty 17 7 0 10 -262144 -1
-1;
#X obj -14 372 *~;
#X obj -86 321 inlet~;
#X obj -14 464 outlet~;
#X obj 4 165 inlet;
#X floatatom 114 138 5 0 5000 0 A - -, f 5;
#X floatatom 114 152 5 0 2000 0 D - -, f 5;
#X floatatom 114 166 5 0 1 0 S - -, f 5;
#X floatatom 114 180 5 0 2000 0 H - -, f 5;
#X obj -85 410 *~;
#X obj 114 123 tgl 15 0 empty empty Hold 17 7 0 10 -262144 -1 -1 0
1;
#X obj 211 305 select 0;
#X obj 211 374 tgl 15 0 empty empty empty 17 7 0 10 -262144 -1 -1 1
1;
#X msg 211 337 1;
#X msg 264 337 0;
#X obj -14 409 *~;
#X obj 114 63 loadbang;
#X floatatom 114 194 5 0 2000 0 R - -, f 5;
#X obj 4 233 pack 0 0 0 0 0 0;
#X msg 4 278 1 \$2 \, \$4 \$3 \$2 \, 0 \$6 \$5;
#X obj 192 198 expr $f1 + $f2 +$f3;
#X connect 0 0 2 1;
#X connect 1 0 19 0;
#X connect 1 0 21 0;
#X connect 2 0 16 0;
#X connect 3 0 2 0;
#X connect 3 0 10 0;
#X connect 5 0 1 0;
#X connect 6 0 19 1;
#X connect 6 0 21 0;
#X connect 7 0 19 2;
#X connect 7 0 21 1;
#X connect 8 0 19 3;
#X connect 9 0 21 2;
#X connect 10 0 4 0;
#X connect 11 0 12 0;
#X connect 11 0 10 1;
#X connect 12 0 14 0;
#X connect 12 1 15 0;
#X connect 13 0 16 1;
#X connect 14 0 13 0;
#X connect 15 0 13 0;
#X connect 16 0 4 0;
#X connect 17 0 11 0;
#X connect 18 0 19 5;
#X connect 19 0 20 0;
#X connect 20 0 0 0;
#X connect 21 0 19 4;
#X coords 0 -1 1 1 60 120 1 100 100;
