#N canvas 123 286 450 300 10;
#X obj 31 74 inlet;
#X obj 31 96 float;
#X obj 31 118 + 1;
#X obj 31 140 mod;
#X floatatom 104 117 5 0 0 0 - - -, f 5;
#X floatatom 31 162 5 0 0 0 - - -, f 5;
#X obj 31 181 outlet;
#X obj 185 60 inlet;
#X connect 0 0 1 0;
#X connect 1 0 2 0;
#X connect 2 0 3 0;
#X connect 3 0 1 1;
#X connect 3 0 5 0;
#X connect 4 0 3 1;
#X connect 5 0 6 0;
#X connect 7 0 4 0;
#X coords 0 -1 1 1 40 35 1 100 100;
