#N canvas -8 -8 1440 796 10;
#X obj 4 166 *~;
#X obj 107 123 hsl 128 15 1 50 0 0 empty empty empty -2 -8 0 10 -262144
-1 -1 0 1;
#X obj 3 245 clip~;
#X msg 63 168 -1;
#X msg 62 202 1;
#X obj 3 267 outlet~;
#X obj 5 110 inlet~;
#X floatatom 237 124 5 0 0 0 - - -, f 5;
#X connect 0 0 2 0;
#X connect 1 0 0 1;
#X connect 1 0 3 0;
#X connect 1 0 4 0;
#X connect 1 0 7 0;
#X connect 2 0 5 0;
#X connect 3 0 2 1;
#X connect 4 0 2 2;
#X connect 6 0 0 0;
#X coords 0 -1 1 1 180 40 1 100 100;
