#N canvas 2 52 1425 796 10;
#X obj -6 270 osc~;
#X obj -21 345 +~;
#X obj -21 390 osc~;
#X obj -5 309 *~;
#X obj 108 129 hsl 128 15 0 127 0 0 empty empty Carrier -2 -8 0 10
-262144 -1 -1 5700 1;
#X obj 108 165 hsl 128 15 13 127 0 0 empty empty Modulation_(C:XM)
-2 -8 0 10 -262144 -1 -1 11300 1;
#X floatatom 239 165 8 0 0 0 - - -, f 8;
#X obj 108 199 hsl 128 15 0 127 0 0 empty empty Modulation_amount -2
-8 0 10 -262144 -1 -1 12100 1;
#X floatatom 238 199 8 0 0 0 - - -, f 8;
#X floatatom 238 129 8 0 0 0 - - -, f 8;
#X obj -21 422 outlet~;
#X obj 112 79 inlet;
#X obj 210 80 inlet;
#X obj 161 79 inlet;
#X obj 39 422 outlet~;
#X obj 39 390 phasor~;
#X obj -154 209 mtof;
#X obj -154 241 sig~;
#X obj -90 234 *;
#X obj 77 242 * 40;
#X obj 6 223 / 12.7;
#X obj 11 245 int;
#X obj -50 207 bng 15 250 50 0 empty empty empty 17 7 0 10 -262144
-1 -1;
#X connect 0 0 3 0;
#X connect 1 0 2 0;
#X connect 1 0 15 0;
#X connect 2 0 10 0;
#X connect 3 0 1 1;
#X connect 4 0 16 0;
#X connect 5 0 20 0;
#X connect 7 0 19 0;
#X connect 8 0 3 1;
#X connect 11 0 4 0;
#X connect 12 0 7 0;
#X connect 13 0 5 0;
#X connect 15 0 14 0;
#X connect 16 0 17 0;
#X connect 16 0 18 0;
#X connect 16 0 9 0;
#X connect 17 0 1 0;
#X connect 18 0 0 0;
#X connect 19 0 8 0;
#X connect 20 0 21 0;
#X connect 21 0 18 1;
#X connect 21 0 6 0;
#X connect 21 0 22 0;
#X connect 22 0 18 0;
#X coords 0 -1 1 1 200 120 1 100 100;
