#N canvas 0 50 1440 796 10;
#X obj -15 190 osc~;
#X obj -21 315 +~;
#X obj -21 360 osc~;
#X obj -1 231 *~;
#X obj 113 129 hsl 128 15 0 127 0 0 empty empty Carrier -2 -8 0 10
-262144 -1 -1 10000 1;
#X obj 113 165 hsl 128 15 0 2000 0 0 empty empty Modulation -2 -8 0
10 -262144 -1 -1 100 1;
#X floatatom 243 165 8 0 0 0 - - -, f 8;
#X obj 113 199 hsl 128 15 0 5000 0 0 empty empty Modulation_amount
-2 -8 0 10 -262144 -1 -1 1000 1;
#X floatatom 243 199 8 0 0 0 - - -, f 8;
#X obj -181 182 mtof~;
#X obj -48 128 mtof;
#X floatatom 243 129 8 0 0 0 - - -, f 8;
#X obj -21 392 outlet~;
#X obj 117 79 inlet;
#X obj 215 80 inlet;
#X obj 166 79 inlet;
#X text 506 114 comment;
#X connect 0 0 3 0;
#X connect 1 0 2 0;
#X connect 2 0 12 0;
#X connect 3 0 1 1;
#X connect 4 0 9 0;
#X connect 4 0 10 0;
#X connect 5 0 0 0;
#X connect 5 0 6 0;
#X connect 7 0 8 0;
#X connect 8 0 3 1;
#X connect 9 0 1 0;
#X connect 10 0 11 0;
#X connect 13 0 4 0;
#X connect 14 0 7 0;
#X connect 15 0 5 0;
#X coords 0 -1 1 1 200 120 1 100 100;
