#N canvas 0 51 1440 823 10;
#X obj 104 146 osc~;
#X floatatom 104 123 5 0 20 1 Hz - -, f 5;
#X obj 104 276 outlet;
#X obj 104 200 snapshot~;
#X obj 135 175 bang~;
#X floatatom 104 252 5 0 0 0 - - -, f 5;
#X obj 104 222 abs;
#X connect 0 0 3 0;
#X connect 1 0 0 0;
#X connect 3 0 6 0;
#X connect 4 0 3 0;
#X connect 5 0 2 0;
#X connect 6 0 5 0;
#X coords 0 -1 1 1 60 40 1 100 100;
