#N canvas 2 52 1425 823 10;
#X obj -26 170 osc~;
#X floatatom 104 117 5 0 20 1 Hz - -, f 5;
#X obj -26 360 outlet;
#X obj -26 224 snapshot~;
#X obj 35 189 bang~;
#X floatatom -26 286 5 0 0 0 - - -, f 5;
#X obj -26 256 abs;
#X floatatom 104 134 5 1 500 1 Amt - -, f 5;
#X obj -26 317 *;
#X floatatom -26 339 5 0 0 0 - - -, f 5;
#X obj 104 64 inlet;
#X obj 164 64 inlet;
#X obj 104 360 outlet;
#X obj 104 224 snapshot~;
#X floatatom 104 286 5 0 0 0 - - -, f 5;
#X obj 104 256 abs;
#X obj 104 317 *;
#X floatatom 104 339 5 0 0 0 - - -, f 5;
#X obj 104 170 phasor~;
#X connect 0 0 3 0;
#X connect 1 0 0 0;
#X connect 1 0 18 0;
#X connect 3 0 6 0;
#X connect 4 0 3 0;
#X connect 4 0 13 0;
#X connect 5 0 8 0;
#X connect 6 0 5 0;
#X connect 7 0 8 1;
#X connect 7 0 16 1;
#X connect 8 0 9 0;
#X connect 9 0 2 0;
#X connect 10 0 1 0;
#X connect 11 0 7 0;
#X connect 13 0 15 0;
#X connect 14 0 16 0;
#X connect 15 0 14 0;
#X connect 16 0 17 0;
#X connect 17 0 12 0;
#X connect 18 0 13 0;
#X coords 0 -1 1 1 70 55 1 100 100;
