#N canvas 416 52 1425 823 10;
#X obj -26 210 osc~;
#X floatatom 104 117 5 0 20 1 Hz - -, f 5;
#X obj -26 264 snapshot~;
#X obj 35 229 bang~;
#X floatatom -26 326 5 0 0 0 - - -, f 5;
#X obj -26 296 abs;
#X floatatom 104 134 5 1 500 1 Amt - -, f 5;
#X obj -26 357 *;
#X floatatom -26 379 5 0 0 0 - - -, f 5;
#X obj 104 26 inlet;
#X obj 201 26 inlet;
#X obj 104 264 snapshot~;
#X floatatom 104 326 5 0 0 0 - - -, f 5;
#X obj 104 296 abs;
#X obj 104 357 *;
#X floatatom 104 379 5 0 0 0 - - -, f 5;
#X obj 104 210 phasor~;
#X obj 104 440 spigot;
#X obj 166 115 tgl 15 0 empty empty Sine/Ramp 17 7 0 10 -262144 -1
-1 1 1;
#X floatatom -26 488 5 0 0 0 - - -, f 5;
#X obj -26 557 outlet;
#X obj 104 58 / 6.35;
#X obj 201 58 / 0.254;
#X obj 271 26 inlet;
#X text 377 120 inlet1 - Rate : 127 intlet2 - Amt : 127 Osctype - Sine/Ramp
: 0/1;
#X obj 212 173 select 0;
#X msg 212 195 0;
#X msg 266 196 1;
#X obj -26 517 *;
#X connect 0 0 2 0;
#X connect 1 0 0 0;
#X connect 1 0 16 0;
#X connect 1 0 25 0;
#X connect 2 0 5 0;
#X connect 3 0 2 0;
#X connect 3 0 11 0;
#X connect 4 0 7 0;
#X connect 5 0 4 0;
#X connect 6 0 7 1;
#X connect 6 0 14 1;
#X connect 7 0 8 0;
#X connect 8 0 19 0;
#X connect 9 0 21 0;
#X connect 10 0 22 0;
#X connect 11 0 13 0;
#X connect 12 0 14 0;
#X connect 13 0 12 0;
#X connect 14 0 15 0;
#X connect 15 0 17 0;
#X connect 16 0 11 0;
#X connect 17 0 19 0;
#X connect 18 0 17 1;
#X connect 19 0 28 0;
#X connect 21 0 1 0;
#X connect 22 0 6 0;
#X connect 23 0 18 0;
#X connect 25 0 26 0;
#X connect 25 1 27 0;
#X connect 26 0 28 1;
#X connect 27 0 28 1;
#X connect 28 0 20 0;
#X coords 0 -1 1 1 150 55 1 100 100;
