#N canvas 186 329 450 300 10;
#X obj 53 166 osc~;
#X floatatom 104 123 5 0 20 1 Hz - -, f 5;
#X obj -17 206 *~;
#X obj -17 228 outlet~;
#X obj -19 134 inlet~;
#X connect 0 0 2 1;
#X connect 1 0 0 0;
#X connect 2 0 3 0;
#X connect 4 0 2 0;
#X coords 0 -1 1 1 50 40 1 100 100;
