#N canvas -8 -8 1440 796 10;
#X obj 65 173 lop~;
#X obj 106 122 hsl 128 15 0 5000 0 0 empty empty empty -2 -8 0 10 -262144
-1 -1 0 1;
#X floatatom 103 142 8 0 0 1 Cutoff_Freq - -, f 8;
#X obj 65 194 lop~;
#X obj 65 65 inlet~;
#X obj 65 216 outlet~;
#X connect 0 0 3 0;
#X connect 1 0 2 0;
#X connect 2 0 0 1;
#X connect 2 0 3 1;
#X connect 3 0 5 0;
#X connect 4 0 0 0;
#X coords 0 -1 1 1 150 60 1 100 100;
