#N canvas 812 77 502 417 10;
#X obj 62 317 dac~;
#X obj 62 270 *~;
#X obj 133 114 tgl 15 0 empty empty On 17 7 0 10 -262144 -1 -1 0 0.645669
;
#X obj 61 128 inlet~;
#X obj 107 35 inlet;
#X obj 135 134 vu 15 120 empty empty -1 -8 0 10 -66577 -1 1 0;
#X obj 107 125 vsl 15 128 0 1 0 0 empty empty empty 0 -9 0 10 -262144
-1 -1 0 1;
#X obj 118 294 env~;
#X obj 118 316 - 100;
#X obj 0 317 outlet~;
#X text 227 104 inlet1 - Audio inlet intlet2 - vol - 127;
#X obj 107 57 / 127;
#X obj 157 35 inlet;
#X connect 1 0 0 0;
#X connect 1 0 0 1;
#X connect 1 0 7 0;
#X connect 2 0 1 1;
#X connect 3 0 1 0;
#X connect 3 0 9 0;
#X connect 4 0 11 0;
#X connect 6 0 1 1;
#X connect 6 0 2 0;
#X connect 7 0 8 0;
#X connect 8 0 5 0;
#X connect 11 0 6 0;
#X connect 12 0 2 0;
#X coords 0 -1 1 1 85 160 1 100 100;
