#N canvas 187 152 558 390 10;
#X obj -6 285 metro 100;
#X obj 162 121 tgl 15 0 empty empty empty 17 7 0 10 -262144 -1 -1 1
1;
#X floatatom 103 122 5 0 0 1 bpm - -, f 5;
#X floatatom 103 187 5 0 0 0 - - -, f 5;
#X obj 103 155 / 60;
#X obj 85 214 /;
#X floatatom 85 236 5 0 0 0 - - -, f 5;
#X obj 51 148 bng 15 250 50 0 empty empty empty 17 7 0 10 -262144 -1
-1;
#X obj 347 307 outlet;
#X obj -22 331 outlet;
#X obj 162 102 bng 15 250 50 0 empty empty empty 17 7 0 10 -262144
-1 -1;
#X msg 8 184 1000;
#X msg 49 90 120;
#X obj 44 49 loadbang;
#X obj 170 272 / 2;
#X obj 200 272 / 4;
#X obj 230 272 / 8;
#X obj 260 272 / 16;
#X obj 170 307 metro;
#X obj 210 307 metro;
#X obj 250 307 metro;
#X obj 290 307 metro;
#X obj 170 329 outlet;
#X obj 210 329 outlet;
#X obj 250 329 outlet;
#X obj 290 329 outlet;
#X connect 0 0 9 0;
#X connect 0 0 10 0;
#X connect 1 0 0 0;
#X connect 1 0 18 0;
#X connect 1 0 19 0;
#X connect 1 0 20 0;
#X connect 1 0 21 0;
#X connect 2 0 4 0;
#X connect 2 0 7 0;
#X connect 3 0 5 1;
#X connect 4 0 3 0;
#X connect 5 0 6 0;
#X connect 6 0 0 1;
#X connect 6 0 8 0;
#X connect 6 0 14 0;
#X connect 6 0 15 0;
#X connect 6 0 16 0;
#X connect 6 0 17 0;
#X connect 7 0 11 0;
#X connect 10 0 6 0;
#X connect 11 0 5 0;
#X connect 12 0 2 0;
#X connect 13 0 12 0;
#X connect 14 0 18 1;
#X connect 15 0 19 1;
#X connect 16 0 20 1;
#X connect 17 0 21 1;
#X connect 18 0 22 0;
#X connect 19 0 23 0;
#X connect 20 0 24 0;
#X connect 21 0 25 0;
#X coords 0 -1 1 1 85 40 1 100 100;
