#N canvas 800 188 558 482 10;
#X obj 105 55 inlet;
#X obj 105 77 route 0 1 2 3 4 5 6 7 8 9 10 11 12 13 14 15;
#X obj 105 124 hradio 15 1 0 16 empty empty empty 0 -8 0 10 -261234
-1 -1 6;
#X obj 105 149 vradio 15 1 0 13 empty empty empty 0 -8 0 10 -262144
-1 -1 1;
#X obj 120 149 vradio 15 1 0 13 empty empty empty 0 -8 0 10 -262144
-1 -1 12;
#X obj 135 149 vradio 15 1 0 13 empty empty empty 0 -8 0 10 -262144
-1 -1 0;
#X obj 150 149 vradio 15 1 0 13 empty empty empty 0 -8 0 10 -262144
-1 -1 10;
#X obj 165 149 vradio 15 1 0 13 empty empty empty 0 -8 0 10 -262144
-1 -1 5;
#X obj 180 149 vradio 15 1 0 13 empty empty empty 0 -8 0 10 -262144
-1 -1 0;
#X obj 195 149 vradio 15 1 0 13 empty empty empty 0 -8 0 10 -262144
-1 -1 8;
#X obj 210 149 vradio 15 1 0 13 empty empty empty 0 -8 0 10 -262144
-1 -1 3;
#X obj 225 149 vradio 15 1 0 13 empty empty empty 0 -8 0 10 -262144
-1 -1 0;
#X obj 240 149 vradio 15 1 0 13 empty empty empty 0 -8 0 10 -262144
-1 -1 6;
#X obj 255 149 vradio 15 1 0 13 empty empty empty 0 -8 0 10 -262144
-1 -1 0;
#X obj 270 149 vradio 15 1 0 13 empty empty empty 0 -8 0 10 -262144
-1 -1 6;
#X obj 285 149 vradio 15 1 0 13 empty empty empty 0 -8 0 10 -262144
-1 -1 0;
#X obj 300 149 vradio 15 1 0 13 empty empty empty 0 -8 0 10 -262144
-1 -1 3;
#X obj 315 149 vradio 15 1 0 13 empty empty empty 0 -8 0 10 -262144
-1 -1 4;
#X obj 330 149 vradio 15 1 0 13 empty empty empty 0 -8 0 10 -262144
-1 -1 7;
#X floatatom 217 379 5 0 0 0 - - -, f 5;
#X obj 217 398 route 0;
#X obj 258 430 outlet;
#X obj 166 436 outlet;
#X connect 0 0 1 0;
#X connect 0 0 2 0;
#X connect 1 0 3 0;
#X connect 1 1 4 0;
#X connect 1 2 5 0;
#X connect 1 3 6 0;
#X connect 1 4 7 0;
#X connect 1 5 8 0;
#X connect 1 6 9 0;
#X connect 1 7 10 0;
#X connect 1 8 11 0;
#X connect 1 9 12 0;
#X connect 1 10 13 0;
#X connect 1 11 14 0;
#X connect 1 12 15 0;
#X connect 1 13 16 0;
#X connect 1 14 17 0;
#X connect 1 15 18 0;
#X connect 3 0 19 0;
#X connect 4 0 19 0;
#X connect 5 0 19 0;
#X connect 6 0 19 0;
#X connect 7 0 19 0;
#X connect 8 0 19 0;
#X connect 9 0 19 0;
#X connect 10 0 19 0;
#X connect 11 0 19 0;
#X connect 12 0 19 0;
#X connect 13 0 19 0;
#X connect 14 0 19 0;
#X connect 15 0 19 0;
#X connect 16 0 19 0;
#X connect 17 0 19 0;
#X connect 18 0 19 0;
#X connect 19 0 20 0;
#X connect 19 0 22 0;
#X connect 20 1 21 0;
#X coords 0 -1 1 1 250 250 1 100 100;
