#N canvas 0 50 450 300 10;
#X obj 105 147 * 12;
#X floatatom 105 122 5 0 10 1 Octave_transpose - -, f 5;
#X floatatom 105 169 5 0 0 0 - - -, f 5;
#X obj 51 191 +;
#X obj 51 143 inlet;
#X obj 51 221 outlet;
#X connect 0 0 2 0;
#X connect 1 0 0 0;
#X connect 2 0 3 1;
#X connect 3 0 5 0;
#X connect 4 0 3 0;
#X coords 0 -1 1 1 140 40 1 100 100;
