#N canvas 2 52 1425 823 10;
#X obj -281 31 inlet;
#X obj -281 153 phasor~;
#X obj -208 153 phasor~;
#X obj -207 176 expr~ $v1 > $v2;
#X obj 202 30 inlet;
#X floatatom -281 64 5 0 0 0 - - -, f 5;
#X obj 109 164 hsl 128 15 5 120 0 0 empty empty PWM -2 -8 0 10 -262144
-1 -1 4800 1;
#X obj -105 72 / 127;
#X obj -207 198 -~ 0.5;
#X obj 156 129 tgl 15 0 empty empty Ramp 17 7 0 10 -262144 -1 -1 1
1;
#X obj -282 273 *~;
#X obj 207 129 tgl 15 0 empty empty Square 17 7 0 10 -262144 -1 -1
0 1;
#X obj -208 273 *~;
#X obj 107 129 tgl 15 0 empty empty Sine 17 7 0 10 -262144 -1 -1 0
1;
#X obj -332 274 *~;
#X obj -332 153 osc~;
#X obj -283 401 outlet~;
#X obj -18 30 inlet;
#X obj 32 30 inlet;
#X obj 82 30 inlet;
#X obj -282 354 *~ 0.33;
#X connect 0 0 5 0;
#X connect 1 0 10 0;
#X connect 2 0 3 0;
#X connect 3 0 8 0;
#X connect 4 0 6 0;
#X connect 5 0 1 0;
#X connect 5 0 2 0;
#X connect 5 0 15 0;
#X connect 6 0 7 0;
#X connect 7 0 3 1;
#X connect 8 0 12 0;
#X connect 9 0 10 1;
#X connect 10 0 20 0;
#X connect 11 0 12 1;
#X connect 12 0 20 0;
#X connect 13 0 14 1;
#X connect 14 0 20 0;
#X connect 15 0 14 0;
#X connect 17 0 13 0;
#X connect 18 0 9 0;
#X connect 19 0 11 0;
#X connect 20 0 16 0;
#X coords 0 -1 1 1 170 90 1 100 100;
