#N canvas 612 242 450 275 10;
#X floatatom 107 46 5 0 0 0 - - -, f 5;
#X obj 107 85 +;
#X floatatom 107 117 7 0 0 0 - - -, f 7;
#X floatatom 155 46 5 0 0 0 - - -, f 5;
#X obj 107 19 inlet;
#X obj 155 19 inlet;
#X obj 107 136 outlet;
#X connect 0 0 1 0;
#X connect 1 0 2 0;
#X connect 2 0 6 0;
#X connect 3 0 1 1;
#X connect 4 0 0 0;
#X connect 5 0 3 0;
#X coords 0 -1 1 1 60 35 1 100 100;
