#N canvas 2 52 1425 823 10;
#X obj 219 193 inlet;
#X obj 293 15 inlet;
#X obj 166 291 route 0 1 2 3 4 5 6 7;
#X obj 166 147 counter;
#X floatatom 166 187 5 0 0 0 - - -, f 5;
#X obj 166 32 bng 15 250 50 0 empty empty empty 17 7 0 10 -262144 -1
-1;
#X msg 212 112 8;
#X msg 166 259 \$1 \$2;
#X obj 166 227 pack 0 0;
#X obj 166 323 outlet;
#X obj 184 349 outlet;
#X obj 202 373 outlet;
#X obj 220 399 outlet;
#X obj 238 423 outlet;
#X obj 256 449 outlet;
#X obj 274 473 outlet;
#X obj 292 499 outlet;
#X obj 212 77 loadbang;
#X connect 0 0 8 1;
#X connect 1 0 5 0;
#X connect 2 0 9 0;
#X connect 2 1 10 0;
#X connect 2 2 11 0;
#X connect 2 3 12 0;
#X connect 2 4 13 0;
#X connect 2 5 14 0;
#X connect 2 6 15 0;
#X connect 2 7 16 0;
#X connect 3 0 4 0;
#X connect 4 0 8 0;
#X connect 5 0 3 0;
#X connect 6 0 3 1;
#X connect 7 0 2 0;
#X connect 8 0 7 0;
#X connect 17 0 6 0;
