#N canvas 849 490 450 300 10;
#X obj 105 122 hradio 15 1 0 4 empty empty empty 0 -8 0 10 -262144
-1 -1 3;
#X floatatom 105 142 5 0 0 0 - - -, f 5;
#X obj 52 122 inlet;
#X obj 52 268 outlet;
#X obj 52 225 route 0 1 2 3;
#X obj 102 268 outlet;
#X obj 152 268 outlet;
#X obj 202 268 outlet;
#X obj 52 165 pack 0 0;
#X msg 52 188 \$2 \$1;
#X connect 0 0 1 0;
#X connect 1 0 8 1;
#X connect 2 0 8 0;
#X connect 4 0 3 0;
#X connect 4 1 5 0;
#X connect 4 2 6 0;
#X connect 4 3 7 0;
#X connect 8 0 9 0;
#X connect 9 0 4 0;
#X coords 0 -1 1 1 70 40 1 100 100;
