#N canvas 851 492 450 300 10;
#X obj 105 122 hradio 15 1 0 4 empty empty empty 0 -8 0 10 -262144
-1 -1 0;
#X floatatom 105 142 5 0 0 0 - - -, f 5;
#X obj 54 122 inlet;
#X msg 105 172 \$1 \$2;
#X obj 107 245 outlet;
#X obj 105 202 route 0 1 2 3;
#X obj 157 245 outlet;
#X obj 207 245 outlet;
#X obj 257 245 outlet;
#X connect 0 0 1 0;
#X connect 1 0 3 0;
#X connect 2 0 3 0;
#X connect 3 0 5 0;
#X connect 5 0 4 0;
#X connect 5 1 6 0;
#X connect 5 2 7 0;
#X connect 5 3 8 0;
#X coords 0 -1 1 1 70 40 1 100 100;
