#N canvas 870 462 450 276 10;
#X obj -5 105 inlet~;
#X obj 14 176 *~;
#X obj 108 138 hsl 128 15 0 1 0 0 empty empty volume -2 -8 0 10 -262144
-1 -1 0 1;
#X obj 11 228 outlet~;
#X obj 105 161 tgl 15 0 empty empty On 17 7 0 10 -262144 -1 -1 0 1
;
#X connect 0 0 1 0;
#X connect 1 0 3 0;
#X connect 2 0 1 1;
#X connect 2 0 4 0;
#X connect 4 0 1 1;
#X coords 0 -1 1 1 150 80 1 100 100;
