#N canvas -8 -8 1440 796 10;
#X obj 220 213 random 5;
#X obj 220 318 *;
#X floatatom 295 290 5 0 0 1 Base_Freq - -, f 5;
#X obj 220 157 metro 50;
#X floatatom 289 125 5 0 0 2 Separator_(ms) - -, f 5;
#X obj 220 110 tgl 15 0 empty empty empty 17 7 0 10 -262144 -1 -1 1
1;
#X obj 221 461 osc~;
#X obj 220 597 dac~;
#X floatatom 335 181 5 0 0 0 - - -, f 5;
#X obj 335 167 hradio 15 1 0 15 empty empty Variator 0 -8 0 10 -262144
-1 -1 7;
#X floatatom 166 278 5 0 0 0 Multiplier - -, f 5;
#X obj 366 47 metro 100;
#X floatatom 508 119 5 0 0 0 - - -, f 5;
#X floatatom 429 18 5 0 0 0 - - -, f 5;
#X obj 508 97 random 7;
#X obj 457 139 + 4;
#X obj 220 429 lop~;
#X obj 315 381 hsl 128 15 0 50 0 0 empty empty Cutoff_Freq -2 -8 0
10 -262144 -1 -1 12700 1;
#X floatatom 312 401 5 0 0 0 - - -, f 5;
#X obj 220 561 *~;
#X obj 292 530 hsl 128 15 0 1 0 0 empty empty Volume -2 -8 0 10 -262144
-1 -1 4400 1;
#X obj 220 235 + 1;
#X floatatom 166 358 5 0 0 0 Final_Freq - -, f 5;
#X obj 166 377 ftom;
#X floatatom 166 399 5 0 0 0 Final_note - -, f 5;
#X obj 295 265 mtof;
#X floatatom 295 237 5 0 0 1 Base_note_(MIDI) - -, f 5;
#X connect 0 0 21 0;
#X connect 1 0 16 0;
#X connect 1 0 22 0;
#X connect 2 0 1 1;
#X connect 3 0 0 0;
#X connect 4 0 3 1;
#X connect 5 0 3 0;
#X connect 5 0 11 0;
#X connect 6 0 19 0;
#X connect 8 0 0 1;
#X connect 9 0 8 0;
#X connect 11 0 14 0;
#X connect 13 0 11 1;
#X connect 14 0 12 0;
#X connect 14 0 15 0;
#X connect 15 0 9 0;
#X connect 16 0 6 0;
#X connect 17 0 16 1;
#X connect 17 0 18 0;
#X connect 19 0 7 0;
#X connect 20 0 19 1;
#X connect 21 0 1 0;
#X connect 21 0 10 0;
#X connect 22 0 23 0;
#X connect 23 0 24 0;
#X connect 25 0 2 0;
#X connect 26 0 25 0;
