#N canvas 2 52 821 504 10;
#X obj 24 30 master_vol;
#X obj 120 30 rando;
#X obj 240 30 lfo;
#X obj 120 126 oscy;
#X obj 305 126 adsr;
#X obj 25 265 porta;
#X obj 25 210 pitch_ctl;
#X obj 400 30 lfo;
#X obj 586 143 router;
#X floatatom 579 221 5 0 0 0 - - -, f 5;
#X floatatom 629 221 5 0 0 0 - - -, f 5;
#X floatatom 679 221 5 0 0 0 - - -, f 5;
#X floatatom 729 221 5 0 0 0 - - -, f 5;
#X obj 304 97 bng 15 250 50 0 empty empty empty 17 7 0 10 -262144 -1
-1;
#X obj 601 267 bng 15 250 50 0 empty empty empty 17 7 0 10 -262144
-1 -1;
#X floatatom 512 434 5 0 0 0 - - -, f 5;
#X floatatom 305 267 5 0 0 0 - - -, f 5;
#X obj 125 435 *~;
#X obj 135 345 filter;
#X obj 405 126 adsr;
#X floatatom 405 267 5 0 0 0 - - -, f 5;
#X obj 405 286 * 127;
#X floatatom 405 308 5 0 0 0 - - -, f 5;
#X obj 507 352 notein;
#X obj 583 412 bng 15 250 50 0 empty empty empty 17 7 0 10 -262144
-1 -1;
#X floatatom 539 395 5 0 0 0 - - -, f 5;
#X obj 584 383 select 0;
#X obj 636 415 bng 15 250 50 0 empty empty empty 17 7 0 10 -262144
-1 -1;
#X obj 512 453 mtof;
#X connect 2 0 8 0;
#X connect 3 0 18 0;
#X connect 4 0 16 0;
#X connect 5 0 3 0;
#X connect 6 0 5 0;
#X connect 8 0 9 0;
#X connect 8 1 10 0;
#X connect 8 2 11 0;
#X connect 8 3 12 0;
#X connect 9 0 6 1;
#X connect 9 0 14 0;
#X connect 10 0 0 1;
#X connect 13 0 4 0;
#X connect 13 0 19 0;
#X connect 15 0 28 0;
#X connect 16 0 17 1;
#X connect 17 0 0 0;
#X connect 18 0 17 0;
#X connect 19 0 20 0;
#X connect 20 0 21 0;
#X connect 21 0 22 0;
#X connect 22 0 18 1;
#X connect 23 0 15 0;
#X connect 23 1 25 0;
#X connect 23 1 26 0;
#X connect 26 0 24 0;
#X connect 26 1 27 0;
#X connect 27 0 13 0;
#X connect 28 0 6 0;
