#N canvas 0 51 1440 823 10;
#X obj 13 82 master_vol;
#X obj 329 -150 rando;
#X obj 449 -150 lfo;
#X obj 120 412 oscy;
#X obj 120 166 porta;
#X obj 120 92 pitch_ctl;
#X obj 609 -150 lfo;
#X obj 449 -49 router;
#X floatatom 442 29 5 0 0 0 - - -, f 5;
#X floatatom 492 29 5 0 0 0 - - -, f 5;
#X floatatom 542 29 5 0 0 0 - - -, f 5;
#X floatatom 592 29 5 0 0 0 - - -, f 5;
#X obj 464 75 bng 15 250 50 0 empty empty empty 17 7 0 10 -262144 -1
-1;
#X floatatom 120 38 5 0 0 0 - - -, f 5;
#X obj 120 602 filter;
#X floatatom 742 576 5 0 0 0 - - -, f 5;
#X obj 742 595 * 127;
#X floatatom 742 617 5 0 0 0 - - -, f 5;
#X obj 120 -41 notein;
#X obj 184 28 bng 15 250 50 0 empty empty empty 17 7 0 10 -262144 -1
-1;
#X floatatom 139 11 5 0 0 0 - - -, f 5;
#X obj 184 -1 select 0;
#X obj 120 57 mtof;
#X obj 120 667 throw~ master;
#X obj 13 57 catch~ master;
#X obj 595 568 s vca;
#X obj 143 254 r vca;
#X obj 742 636 s vcf;
#X obj 221 573 r vcf;
#X obj 237 29 s note_press;
#X obj 742 256 r note_press;
#X obj 595 254 r note_press;
#X obj 363 253 r vca;
#X obj -231 187 oscilloscope;
#X obj 237 99 s note_release;
#X obj 173 138 r porta;
#X obj 166 275 r o1s;
#X obj 189 298 r o1r;
#X obj 213 320 r o1sq;
#X obj 340 412 oscy;
#X obj 259 362 r o1o;
#X obj 283 382 r o1ft;
#X obj 386 275 r o2s;
#X obj 409 298 r o2r;
#X obj 433 320 r o2sq;
#X obj 479 362 r o2o;
#X obj 503 382 r o2ft;
#X obj 236 341 r o1pwm;
#X obj 456 341 r o2pwm;
#X obj 624 293 r aa;
#X obj 639 323 r ad;
#X obj 654 353 r as;
#X obj 684 413 r ar;
#X obj 771 295 r fa;
#X obj 786 323 r fd;
#X obj 801 353 r fs;
#X obj 831 413 r fr;
#X obj 669 383 r ah;
#X obj 816 383 r fh;
#X obj 609 274 r note_release;
#X obj 756 275 r note_release;
#X obj 595 443 adsr;
#X obj 742 443 adsr;
#X symbolatom 792 -16 10 0 0 0 Patch - -, f 10;
#X obj 792 -49 symbol \$1;
#X msg -222 -133 \; name test \; porta 40 \; resonance 4 \; o1s 1 \;
o1r 0 \; o1sq 1 \; o1pwm 60 \; o1o 0 \; o1ft 0 \; o2s 1 \; o2r 0 \;
o2sq 1 \; o2pwm 60 \; o2o 1 \; o2ft 0 \; aa 100 \; ad 100 \; as 0.5
\; ah 500 \; ar 200 \; fa 400 \; fd 100 \; fs 0.5 \; fh 500 \; fr 200
\;;
#X obj 323 573 r resonance;
#X obj 792 -81 r name;
#X connect 2 0 7 0;
#X connect 3 0 14 0;
#X connect 4 0 3 0;
#X connect 4 0 39 0;
#X connect 5 0 4 0;
#X connect 7 0 8 0;
#X connect 7 1 9 0;
#X connect 7 2 10 0;
#X connect 7 3 11 0;
#X connect 8 0 5 1;
#X connect 8 0 12 0;
#X connect 9 0 0 1;
#X connect 13 0 22 0;
#X connect 14 0 23 0;
#X connect 15 0 16 0;
#X connect 16 0 17 0;
#X connect 17 0 27 0;
#X connect 18 0 13 0;
#X connect 18 1 20 0;
#X connect 18 1 21 0;
#X connect 19 0 34 0;
#X connect 21 0 19 0;
#X connect 21 1 29 0;
#X connect 22 0 5 0;
#X connect 24 0 0 0;
#X connect 24 0 33 0;
#X connect 26 0 3 1;
#X connect 28 0 14 1;
#X connect 30 0 62 0;
#X connect 31 0 61 0;
#X connect 32 0 39 1;
#X connect 35 0 4 1;
#X connect 36 0 3 2;
#X connect 37 0 3 3;
#X connect 38 0 3 4;
#X connect 39 0 14 0;
#X connect 40 0 3 6;
#X connect 41 0 3 7;
#X connect 42 0 39 2;
#X connect 43 0 39 3;
#X connect 44 0 39 4;
#X connect 45 0 39 6;
#X connect 46 0 39 7;
#X connect 47 0 3 5;
#X connect 48 0 39 5;
#X connect 49 0 61 2;
#X connect 50 0 61 3;
#X connect 51 0 61 4;
#X connect 52 0 61 6;
#X connect 53 0 62 2;
#X connect 54 0 62 3;
#X connect 55 0 62 4;
#X connect 56 0 62 6;
#X connect 57 0 61 5;
#X connect 58 0 62 5;
#X connect 59 0 61 1;
#X connect 60 0 62 1;
#X connect 61 0 25 0;
#X connect 62 0 15 0;
#X connect 64 0 63 0;
#X connect 66 0 14 2;
#X connect 67 0 64 0;
