#N canvas 0 51 1440 823 10;
#X obj 208 22 lfo;
#X floatatom 281 113 5 0 0 0 - - -, f 5;
#X floatatom 193 111 5 0 0 0 - - -, f 5;
#X obj 22 67 notein;
#X obj 22 89 stripnote;
#X obj 22 171 mtof;
#X obj 22 193 pitch_ctl;
#X obj 22 301 osc~;
#X obj 52 519 master_vol;
#X obj 361 240 adsr;
#X obj 361 329 throw~ master;
#X obj 53 487 catch~ master;
#X obj 82 115 s note;
#X obj 414 213 r note;
#X obj 23 333 throw~ vol;
#X obj 360 169 catch~ vol;
#X obj 22 233 porta;
#X connect 0 0 2 0;
#X connect 0 1 1 0;
#X connect 3 0 4 0;
#X connect 3 1 4 1;
#X connect 4 0 5 0;
#X connect 4 1 12 0;
#X connect 5 0 6 0;
#X connect 6 0 16 0;
#X connect 7 0 14 0;
#X connect 9 0 10 0;
#X connect 11 0 8 0;
#X connect 13 0 9 1;
#X connect 15 0 9 0;
#X connect 16 0 7 0;
