#N canvas 2 52 1425 823 10;
#X obj 466 6 lfo;
#X floatatom 539 97 5 0 0 0 - - -, f 5;
#X floatatom 451 95 5 0 0 0 - - -, f 5;
#X obj 22 17 notein;
#X obj 22 39 stripnote;
#X obj 22 121 mtof;
#X obj 22 163 pitch_ctl;
#X obj 800 421 master_vol;
#X obj 807 152 adsr;
#X obj 807 241 throw~ master;
#X obj 800 347 catch~ master;
#X obj 82 65 s note;
#X obj 860 125 r note;
#X obj 97 657 throw~ vol;
#X obj 806 81 catch~ vol;
#X obj 22 223 porta;
#X obj 97 494 filter;
#X obj 957 154 adsr;
#X obj 1010 125 r note;
#X floatatom 1020 287 5 0 0 0 - - -, f 5;
#X obj 22 286 oscy;
#X obj 281 290 oscy;
#X obj 800 599 oscilloscope;
#X obj 166 415 crossfader;
#X obj 97 559 vol;
#X connect 0 0 2 0;
#X connect 0 1 1 0;
#X connect 3 0 4 0;
#X connect 3 1 4 1;
#X connect 4 0 5 0;
#X connect 4 1 11 0;
#X connect 5 0 6 0;
#X connect 6 0 15 0;
#X connect 6 0 21 0;
#X connect 7 0 22 0;
#X connect 8 0 9 0;
#X connect 10 0 7 0;
#X connect 12 0 8 1;
#X connect 14 0 8 0;
#X connect 14 0 17 0;
#X connect 15 0 20 0;
#X connect 16 0 24 0;
#X connect 17 1 19 0;
#X connect 18 0 17 1;
#X connect 19 0 16 1;
#X connect 20 0 23 0;
#X connect 21 0 23 1;
#X connect 23 0 16 0;
#X connect 24 0 13 0;
