#N canvas 2 52 821 504 10;
#X obj 24 30 master_vol;
#X obj 120 30 rando;
#X obj 240 30 lfo;
#X obj 120 126 oscy;
#X obj 305 126 adsr;
#X obj 24 199 porta;
#X obj 80 252 pitch_ctl;
#X obj 400 30 lfo;
#X obj 424 259 send;
#X obj 425 200 hradio 15 1 0 8 empty empty empty 0 -8 0 10 -262144
-1 -1 1;
#X obj 586 143 router;
#X floatatom 579 221 5 0 0 0 - - -, f 5;
#X floatatom 629 221 5 0 0 0 - - -, f 5;
#X floatatom 679 221 5 0 0 0 - - -, f 5;
#X floatatom 729 221 5 0 0 0 - - -, f 5;
#X connect 1 0 6 0;
#X connect 2 0 10 0;
#X connect 3 0 4 0;
#X connect 4 0 0 0;
#X connect 5 0 3 0;
#X connect 6 0 5 0;
#X connect 10 0 11 0;
#X connect 10 1 12 0;
#X connect 10 2 13 0;
#X connect 10 3 14 0;
#X connect 11 0 6 1;
#X connect 12 0 0 1;
