#N canvas 2 52 1425 823 10;
#X obj 466 6 lfo;
#X floatatom 529 96 5 0 0 0 - - -, f 5;
#X floatatom 466 95 5 0 0 0 - - -, f 5;
#X obj 22 17 notein;
#X obj 22 39 stripnote;
#X obj 22 121 mtof;
#X obj 22 163 pitch_ctl;
#X obj 689 239 master_vol;
#X obj 689 103 adsr;
#X obj 82 65 s note;
#X obj 742 76 r note;
#X obj 167 657 throw~ vol;
#X obj 688 32 catch~ vol;
#X obj 22 223 porta;
#X obj 167 494 filter;
#X obj 22 286 oscy;
#X obj 281 290 oscy;
#X obj 689 417 oscilloscope;
#X obj 166 415 crossfader;
#X obj 167 559 vol;
#X floatatom 299 214 5 0 0 0 - - -, f 5;
#X obj 281 241 *;
#X obj 299 152 metro 100;
#X obj 299 109 tgl 15 0 empty empty empty 17 7 0 10 -262144 -1 -1 0
1;
#X floatatom 359 130 5 0 0 0 - - -, f 5;
#X obj 299 181 random 5;
#X obj 522 322 noise~;
#X obj 522 414 *~;
#X obj 543 364 hsl 128 15 0 127 0 0 empty empty empty -2 -8 0 10 -262144
-1 -1 2200 1;
#X obj 540 384 / 127;
#X connect 0 0 2 0;
#X connect 0 1 1 0;
#X connect 2 0 6 1;
#X connect 3 0 4 0;
#X connect 3 1 4 1;
#X connect 4 0 5 0;
#X connect 4 1 9 0;
#X connect 5 0 6 0;
#X connect 6 0 13 0;
#X connect 6 0 21 0;
#X connect 7 0 17 0;
#X connect 8 0 7 0;
#X connect 10 0 8 1;
#X connect 12 0 8 0;
#X connect 13 0 15 0;
#X connect 14 0 19 0;
#X connect 15 0 18 0;
#X connect 16 0 18 1;
#X connect 18 0 14 0;
#X connect 19 0 11 0;
#X connect 20 0 21 1;
#X connect 21 0 16 0;
#X connect 22 0 25 0;
#X connect 23 0 22 0;
#X connect 24 0 22 1;
#X connect 25 0 20 0;
#X connect 26 0 27 0;
#X connect 28 0 29 0;
#X connect 29 0 27 1;
